<svg xmlns="http://www.w3.org/2000/svg" version="1.1" xmlns:xlink="http://www.w3.org/1999/xlink" xmlns:svgjs="http://svgjs.dev/svgjs" width="100%" height="100%" viewBox="0 0 1000 600"><rect width="1000" height="600" x="0" y="0" fill="#07021c"/><g><circle r="166.66666666666666" cx="277.5383860270182" cy="299.76060406085696" fill="#ffffff" transform="matrix(1.1274291267020964,0,0,1.1274291267020964,0,-37.95884181513625)"/><path d="M305.287489030393 347.8451621190051Q311.71861235573675 341.56290738915544 311.71861235573675 332.035317277535Q311.71861235573675 322.5077271659146 306.27002176065383 315.8086403686815Q300.8214311655709 309.10955357144843 300.8214311655709 308.8118163804603L300.8214311655709 308.8118163804603Q300.8214311655709 305.03055405491097 311.56974376024266 305.03055405491097Q322.2882826358156 305.03055405491097 328.71940596115945 307.59109389740894Q335.1505292865032 310.1814074590057 335.1505292865032 314.8856550766183L335.1505292865032 314.8856550766183L335.1505292865032 317.3866474809186Q335.1505292865032 333.19649232238874 333.0663689495862 345.70145434389053Q330.9822086126693 358.2064163653923 328.8682745566535 361.36243058986656L328.8682745566535 361.36243058986656Q325.5336180175864 366.48351027486257 316.00602790596594 369.60975078023796L316.00602790596594 369.60975078023796Q300.31527794089106 374.76060418433275 288.7928486496502 374.76060418433275L288.7928486496502 374.76060418433275L285.13068120049604 374.76060418433275Q270.0651793364963 374.76060418433275 257.7090859104886 368.9547289600641Q245.3529924844809 363.1488537357954 237.90956270977745 354.6037963544358Q230.4959066541728 346.0587389730763 225.196184654584 332.511696783116Q219.92623637409395 318.9646545931558 219.92623637409395 303.15480975168566L219.92623637409395 303.15480975168566L219.92623637409395 298.95671535875294Q219.92623637409395 284.0103083711484 224.51138911531126 269.98688667560714L224.51138911531126 269.98688667560714Q233.62214715954826 241.82094840812934 259.7039250901091 230.41761399328365L259.7039250901091 230.41761399328365Q272.6852666171919 224.76060736450904 287.1255203801166 224.76060736450904L287.1255203801166 224.76060736450904L291.20451989665406 224.76060736450904Q310.557437310883 224.76060736450904 320.7102755235785 230.0901030831967Q330.863113736274 235.41959880188438 330.863113736274 244.91741519440598Q330.863113736274 254.38545786782873 324.07470578174446 254.38545786782873L324.07470578174446 254.38545786782873L308.89010904134943 247.9841082615838Q298.8265919859504 243.81578758774984 288.7928486496502 243.81578758774984L288.7928486496502 243.81578758774984Q268.6955882579509 243.81578758774984 256.6967794611289 258.25604135067454Q244.72774438340582 272.6962951135992 244.72774438340582 298.7482993250612L244.72774438340582 298.7482993250612Q244.72774438340582 311.6403196948476 247.97307976517652 322.62682204230987L247.97307976517652 322.62682204230987Q257.38157500040165 354.1274168488548 288.1676005485751 354.1274168488548L288.1676005485751 354.1274168488548Q298.8265919859504 354.1274168488548 305.287489030393 347.8451621190051Z " fill="#07021c" transform="matrix(1.1274291267020964,0,0,1.1274291267020964,0,-37.95884181513625)"/><path d="M642.9743412981879 237.44522587705615L642.9743412981879 237.44522587705615Q642.9743412981879 247.58077024773883 636.7837692873518 247.58077024773883L636.7837692873518 247.58077024773883Q634.4471318126734 247.58077024773883 627.9227544483118 245.7903597151931Q621.4287230251798 243.96960324141776 615.0257294257367 243.96960324141776L615.0257294257367 243.96960324141776Q600.8238289302891 243.96960324141776 598.2747698670037 254.62102861300343L598.2747698670037 254.62102861300343Q596.1505539809324 263.6034272169617 596.1505539809324 307.5443501174063L596.1505539809324 307.5443501174063L595.8167486274069 328.45270362459297L595.8167486274069 339.13447493740824Q595.8167486274069 345.41608477193313 596.6057430993762 348.63275454226954Q597.4250835125752 351.81907837137635 599.063764338973 356.40131549704427Q600.7327911066003 360.9835526227122 600.7327911066003 363.65399545091606L600.7327911066003 363.65399545091606Q600.7327911066003 368.99488110732364 596.180899922162 371.8777455241346Q591.6593546789533 374.76060994094547 583.556988370653 374.76060994094547L583.556988370653 374.76060994094547L580.8865455424493 374.76060994094547Q575.0297788851385 374.76060994094547 570.4171958182411 371.8170536416754Q565.8349586925732 368.9038432836349 565.8349586925732 364.8374871588699Q565.8349586925732 360.77113103410505 567.109488224216 357.2510018514727L567.109488224216 357.2510018514727L567.9591745786445 355.12678596540155L568.9302446979913 353.0025700793303Q569.9013148173381 350.7569704283407 571.23653623144 346.0533495377545Q572.5717576455419 341.3800745883978 572.5717576455419 328.78650897811843L572.5717576455419 328.78650897811843L572.6627954692307 325.78226079638915Q572.784179234149 322.80835855588947 572.784179234149 319.8041103741602L572.784179234149 319.8041103741602L572.9966008227561 313.73492212824243L573.300060235052 289.60989885071933Q573.300060235052 259.3246495035897 571.5096497025063 252.83061808045767L571.5096497025063 252.83061808045767Q569.1426662865983 244.394446418632 558.1574355614872 244.394446418632L558.1574355614872 244.394446418632Q551.754441962044 244.394446418632 543.2879243589887 247.21661895298377Q534.7910608147038 250.03879148733552 532.7578827523214 250.03879148733552L532.7578827523214 250.03879148733552Q527.5383808608321 250.03879148733552 527.5383808608321 239.1749445271427Q527.5383808608321 228.2807516257203 536.8242388770864 226.7938005054705L536.8242388770864 226.7938005054705Q549.8426476645799 224.76062244308804 598.1533861020853 224.76062244308804L598.1533861020853 224.76062244308804L627.8317166246231 224.76062244308804Q636.0251207566121 224.76062244308804 639.5149039980148 227.8559084485061Q642.9743412981879 230.95119445392416 642.9743412981879 237.44522587705615ZM776.1019854723941 366.9617030449412L776.1019854723941 366.9617030449412Q776.1019854723941 373.4860804093028 758.5013395592325 373.4860804093028L758.5013395592325 373.4860804093028Q748.4871789534682 373.4860804093028 743.783558062882 368.26657851781346L743.783558062882 368.26657851781346Q742.2966069426321 366.53685986772695 740.2027369977905 360.61940132795706Q738.1392129941785 354.7019427881873 733.4355921035922 346.5995764798871L733.4355921035922 346.5995764798871Q717.4432810755989 319.07580778465007 714.8942220123134 319.07580778465007L714.8942220123134 319.07580778465007Q710.7064821226302 319.07580778465007 695.8976628025908 344.68778218242295L695.8976628025908 344.68778218242295Q689.5857070268363 355.5516291426158 687.7952964942906 361.95462274205903Q685.9745400205153 368.35761634150225 684.7910483125613 369.75352963806336L684.7910483125613 369.75352963806336Q681.0584975413218 374.33576676373127 669.7394614626852 374.33576676373127Q658.4507713252782 374.33576676373127 658.4507713252782 366.6582436326453L658.4507713252782 366.6582436326453Q658.4507713252782 363.3505360386201 665.5820675142317 355.460591318927Q672.7437096444146 347.54030065800436 679.3591248324649 337.6475238171584L679.3591248324649 337.6475238171584Q700.9047431054729 305.2987504664167 700.9047431054729 300.41305392845294L700.9047431054729 300.41305392845294Q700.9047431054729 293.1603739745812 681.270919129929 263.69446504065047L681.270919129929 263.69446504065047Q673.3809744102359 251.85954796111085 670.3767262285066 248.43045660216728L670.3767262285066 248.43045660216728Q660.1501440341352 236.8079611112348 660.1501440341352 233.2878319286025L660.1501440341352 233.2878319286025Q660.1501440341352 227.30968150637352 678.1756331245109 227.30968150637352L678.1756331245109 227.30968150637352Q687.6739127293722 227.30968150637352 693.0147983857798 232.7719509276995L693.0147983857798 232.7719509276995Q694.8355548595551 234.6837452251636 696.5956194508714 240.81362535354052Q698.3556840421875 246.94350548191747 702.6041158143299 254.31756920070754L702.6041158143299 254.31756920070754Q715.956329955349 277.56256018257255 719.0819619019967 277.56256018257255Q722.2379397898738 277.56256018257255 736.106034931796 255.59209873235025L736.106034931796 255.59209873235025Q742.6304122961575 245.12274900814214 744.3297850050145 238.90183105607642Q746.0291577138715 232.65056716278113 747.6374925990398 230.73877286531703L747.6374925990398 230.73877286531703Q752.0073081361005 225.7316925624349 760.8076310926813 225.7316925624349Q769.607954049262 225.7316925624349 772.0052834063996 227.37037338883266Q774.402612763537 229.03940015646003 774.402612763537 232.34710775048524Q774.402612763537 235.65481534451044 767.5140841044204 242.93784123961174Q760.6559013865333 250.25121307594264 752.856994490529 261.9950923317935L752.856994490529 261.9950923317935Q733.2231705149851 291.43065532449464 733.2231705149851 296.61981127475434Q733.2231705149851 301.77862128378445 752.856994490529 333.45978392747514L752.856994490529 333.45978392747514Q761.1717823874363 346.90303589218297 768.6368839299151 355.24816973031994Q776.1019854723941 363.56295762722726 776.1019854723941 366.9617030449412Z " fill="#ffffff" transform="matrix(1.1274291267020964,0,0,1.1274291267020964,0,-37.95884181513625)"/></g></svg>